File size : 558 MiB
 Duration : 1h 45mn
 Overall bit rate : 741 Kbps
 Movie name : I Am Number Four 2011 BRrip

 Video
 ID : 1
 Format : AVC
 Format/Info : Advanced Video Codec
 Format profile : High@L4.1
 Format settings, CABAC : Yes
 Format settings, ReFrames : 5 frames
 Muxing mode : Header stripping
 Codec ID : V_MPEG4/ISO/AVC
 Duration : 1h 45mn
 Bit rate : 649 Kbps
 Width : 1 280 pixels
 Height : 688 pixels
 Display aspect ratio : 1.860
 Frame rate : 25.000 fps
 Original frame rate : 23.976 fps
 Color space : YUV
 Chroma subsampling : 4:2:0
 Bit depth : 8 bits
 Scan type : Progressive
 Bits/(Pixel*Frame) : 0.029
 Stream size : 498 MiB (89%)

 Language : English

 Audio
 ID : 2
 Format : MPEG Audio
 Format version : Version 2
 Format profile : Layer 3
 Mode : Joint stereo
 Mode extension : MS Stereo
 Muxing mode : Header stripping
 Codec ID : A_MPEG/L3
 Codec ID/Hint : MP3
 Duration : 1h 45mn
 Bit rate mode : Constant
 Bit rate : 64.0 Kbps
 Channel(s) : 2 channels
 Sampling rate : 22.05 KHz
 Video delay : 1s 0ms
 Stream size : 48.1 MiB (9%)
 Title : I Am Number Four 2011 BRrip
 Language : Hindi






 Extraordinary teen John Smith (Pettyfer) is a fugitive on the run from ruthless enemies sent to destroy him. Changing his identity, moving from town to town with his guardian Henri (Olyphant), John is always the new kid with no ties to his past. In the small Ohio town he now calls home, John encounters unexpected, life-changing events-his first love (Agron), powerful new abilities and a connection to the others who share his incredible destiny.



www.imdb.com/title/tt1464540/




 Director: D.J. Caruso
 Writers: Alfred Gough (screenplay), Miles Millar (screenplay), and 3 more credits » 
 Stars: Alex Pettyfer, Timothy Olyphant and Dianna Agron





 Budget: $60,000,000 (estimated) 
 Opening Weekend: $22,755,854 (USA) (20 February 2011) (3 Screens) 
 Gross: $55,011,805 (USA) (22 May 2011)